<svg width="1920" height="1080" viewBox="0 0 1920 1080" fill="none" xmlns="http://www.w3.org/2000/svg">
<g clip-path="url(#clip0_760_40)">
<rect x="43" y="26" width="1833" height="1028" rx="36" stroke="#B3B3B3" stroke-width="8" stroke-dasharray="30 30"/>
<path d="M689.295 514.234V565H683.147V514.234H689.295ZM700.827 565V526.926H706.479V532.875H706.975C707.768 530.842 709.049 529.264 710.817 528.14C712.585 527 714.709 526.43 717.188 526.43C719.699 526.43 721.79 527 723.459 528.14C725.144 529.264 726.458 530.842 727.4 532.875H727.797C728.772 530.908 730.234 529.347 732.184 528.19C734.134 527.017 736.473 526.43 739.199 526.43C742.604 526.43 745.388 527.496 747.553 529.628C749.718 531.743 750.8 535.04 750.8 539.518V565H744.95V539.518C744.95 536.709 744.182 534.701 742.645 533.494C741.108 532.288 739.298 531.685 737.216 531.685C734.539 531.685 732.465 532.495 730.994 534.114C729.524 535.717 728.788 537.75 728.788 540.212V565H722.839V538.923C722.839 536.758 722.137 535.015 720.732 533.693C719.328 532.354 717.518 531.685 715.304 531.685C713.783 531.685 712.362 532.09 711.04 532.9C709.735 533.709 708.677 534.833 707.867 536.271C707.074 537.692 706.677 539.336 706.677 541.204V565H700.827ZM772.7 565.892C770.288 565.892 768.098 565.438 766.131 564.529C764.165 563.604 762.603 562.273 761.447 560.538C760.29 558.786 759.711 556.671 759.711 554.192C759.711 552.011 760.141 550.243 761 548.888C761.86 547.516 763.008 546.442 764.446 545.665C765.884 544.889 767.47 544.31 769.205 543.93C770.957 543.534 772.717 543.22 774.485 542.988C776.799 542.691 778.674 542.468 780.112 542.319C781.566 542.154 782.624 541.881 783.285 541.501C783.962 541.121 784.301 540.46 784.301 539.518V539.32C784.301 536.874 783.632 534.973 782.293 533.618C780.971 532.263 778.963 531.586 776.27 531.586C773.477 531.586 771.287 532.197 769.701 533.42C768.114 534.643 766.999 535.948 766.355 537.337L760.802 535.354C761.794 533.04 763.116 531.239 764.768 529.95C766.437 528.644 768.255 527.735 770.221 527.223C772.205 526.694 774.155 526.43 776.071 526.43C777.294 526.43 778.699 526.579 780.285 526.876C781.888 527.157 783.433 527.744 784.921 528.636C786.425 529.528 787.672 530.875 788.664 532.676C789.655 534.478 790.151 536.89 790.151 539.915V565H784.301V559.844H784.004C783.607 560.67 782.946 561.554 782.021 562.496C781.095 563.438 779.864 564.24 778.327 564.901C776.79 565.562 774.915 565.892 772.7 565.892ZM773.593 560.637C775.906 560.637 777.856 560.183 779.443 559.274C781.046 558.365 782.252 557.192 783.062 555.754C783.888 554.316 784.301 552.804 784.301 551.218V545.864C784.053 546.161 783.508 546.434 782.665 546.682C781.839 546.913 780.88 547.12 779.79 547.301C778.715 547.467 777.666 547.615 776.642 547.748C775.634 547.863 774.816 547.962 774.188 548.045C772.667 548.243 771.246 548.566 769.924 549.012C768.619 549.441 767.561 550.094 766.751 550.97C765.958 551.829 765.561 553.003 765.561 554.49C765.561 556.523 766.313 558.059 767.817 559.1C769.337 560.125 771.263 560.637 773.593 560.637ZM816.197 580.071C813.371 580.071 810.942 579.708 808.909 578.98C806.877 578.27 805.183 577.328 803.828 576.155C802.489 574.998 801.423 573.758 800.63 572.436L805.29 569.164C805.819 569.858 806.488 570.652 807.298 571.544C808.108 572.453 809.215 573.238 810.62 573.899C812.041 574.576 813.9 574.915 816.197 574.915C819.271 574.915 821.807 574.172 823.807 572.684C825.807 571.197 826.806 568.867 826.806 565.694V557.96H826.311C825.881 558.654 825.269 559.514 824.476 560.538C823.7 561.546 822.576 562.447 821.105 563.24C819.651 564.017 817.684 564.405 815.206 564.405C812.132 564.405 809.372 563.678 806.926 562.224C804.497 560.77 802.572 558.654 801.151 555.878C799.746 553.102 799.044 549.731 799.044 545.765C799.044 541.865 799.73 538.469 801.101 535.577C802.473 532.668 804.381 530.421 806.827 528.834C809.273 527.231 812.099 526.43 815.305 526.43C817.783 526.43 819.75 526.843 821.204 527.669C822.675 528.479 823.799 529.404 824.575 530.446C825.369 531.47 825.98 532.313 826.41 532.974H827.005V526.926H832.656V566.091C832.656 569.363 831.913 572.023 830.425 574.072C828.955 576.138 826.972 577.65 824.476 578.609C821.997 579.584 819.238 580.071 816.197 580.071ZM815.999 559.15C818.345 559.15 820.328 558.613 821.948 557.539C823.567 556.465 824.798 554.92 825.641 552.903C826.484 550.887 826.905 548.475 826.905 545.665C826.905 542.922 826.492 540.501 825.666 538.402C824.84 536.304 823.617 534.659 821.997 533.47C820.378 532.28 818.378 531.685 815.999 531.685C813.52 531.685 811.454 532.313 809.802 533.569C808.166 534.825 806.935 536.51 806.108 538.626C805.299 540.741 804.894 543.087 804.894 545.665C804.894 548.309 805.307 550.648 806.133 552.68C806.976 554.696 808.215 556.283 809.851 557.44C811.504 558.58 813.553 559.15 815.999 559.15ZM859.328 565.793C855.66 565.793 852.495 564.983 849.834 563.364C847.19 561.728 845.149 559.447 843.712 556.523C842.291 553.581 841.58 550.16 841.58 546.26C841.58 542.36 842.291 538.923 843.712 535.948C845.149 532.957 847.149 530.627 849.71 528.958C852.288 527.273 855.296 526.43 858.733 526.43C860.716 526.43 862.675 526.76 864.608 527.421C866.541 528.082 868.301 529.157 869.888 530.644C871.474 532.115 872.738 534.065 873.68 536.494C874.622 538.923 875.093 541.914 875.093 545.467V547.946H845.744V542.889H869.144C869.144 540.741 868.715 538.824 867.855 537.138C867.012 535.453 865.806 534.122 864.236 533.147C862.683 532.172 860.848 531.685 858.733 531.685C856.403 531.685 854.387 532.263 852.685 533.42C850.999 534.56 849.702 536.048 848.793 537.882C847.884 539.716 847.43 541.683 847.43 543.781V547.153C847.43 550.028 847.926 552.466 848.917 554.465C849.925 556.448 851.322 557.96 853.106 559.001C854.891 560.026 856.965 560.538 859.328 560.538C860.865 560.538 862.253 560.323 863.493 559.894C864.748 559.447 865.831 558.786 866.74 557.911C867.649 557.018 868.351 555.911 868.847 554.589L874.498 556.175C873.903 558.092 872.904 559.778 871.499 561.232C870.094 562.67 868.359 563.794 866.294 564.603C864.228 565.397 861.906 565.793 859.328 565.793ZM944.673 514.234V565H938.724L911.061 525.141H910.565V565H904.418V514.234H910.367L938.129 554.192H938.625V514.234H944.673ZM971.649 565.793C968.212 565.793 965.196 564.975 962.601 563.339C960.023 561.703 958.007 559.414 956.553 556.473C955.115 553.531 954.396 550.094 954.396 546.161C954.396 542.195 955.115 538.733 956.553 535.775C958.007 532.817 960.023 530.52 962.601 528.884C965.196 527.248 968.212 526.43 971.649 526.43C975.086 526.43 978.094 527.248 980.672 528.884C983.266 530.52 985.282 532.817 986.72 535.775C988.174 538.733 988.901 542.195 988.901 546.161C988.901 550.094 988.174 553.531 986.72 556.473C985.282 559.414 983.266 561.703 980.672 563.339C978.094 564.975 975.086 565.793 971.649 565.793ZM971.649 560.538C974.26 560.538 976.408 559.869 978.094 558.53C979.779 557.192 981.027 555.432 981.837 553.25C982.646 551.069 983.051 548.706 983.051 546.161C983.051 543.616 982.646 541.245 981.837 539.047C981.027 536.849 979.779 535.073 978.094 533.718C976.408 532.362 974.26 531.685 971.649 531.685C969.038 531.685 966.89 532.362 965.204 533.718C963.518 535.073 962.271 536.849 961.461 539.047C960.651 541.245 960.246 543.616 960.246 546.161C960.246 548.706 960.651 551.069 961.461 553.25C962.271 555.432 963.518 557.192 965.204 558.53C966.89 559.869 969.038 560.538 971.649 560.538ZM1014.39 526.926V531.883H994.658V526.926H1014.39ZM1000.41 517.804H1006.26V554.093C1006.26 555.746 1006.5 556.985 1006.98 557.811C1007.47 558.621 1008.1 559.167 1008.86 559.447C1009.64 559.712 1010.46 559.844 1011.32 559.844C1011.96 559.844 1012.49 559.811 1012.9 559.745C1013.32 559.662 1013.65 559.596 1013.89 559.547L1015.08 564.802C1014.69 564.95 1014.13 565.099 1013.42 565.248C1012.71 565.413 1011.81 565.496 1010.72 565.496C1009.07 565.496 1007.45 565.14 1005.86 564.43C1004.29 563.719 1002.99 562.637 1001.95 561.183C1000.92 559.728 1000.41 557.894 1000.41 555.68V517.804ZM1043.61 565V514.234H1074.05V519.688H1049.76V536.841H1071.77V542.294H1049.76V565H1043.61ZM1096.46 565.793C1093.03 565.793 1090.01 564.975 1087.41 563.339C1084.84 561.703 1082.82 559.414 1081.37 556.473C1079.93 553.531 1079.21 550.094 1079.21 546.161C1079.21 542.195 1079.93 538.733 1081.37 535.775C1082.82 532.817 1084.84 530.52 1087.41 528.884C1090.01 527.248 1093.03 526.43 1096.46 526.43C1099.9 526.43 1102.91 527.248 1105.49 528.884C1108.08 530.52 1110.1 532.817 1111.53 535.775C1112.99 538.733 1113.72 542.195 1113.72 546.161C1113.72 550.094 1112.99 553.531 1111.53 556.473C1110.1 559.414 1108.08 561.703 1105.49 563.339C1102.91 564.975 1099.9 565.793 1096.46 565.793ZM1096.46 560.538C1099.07 560.538 1101.22 559.869 1102.91 558.53C1104.59 557.192 1105.84 555.432 1106.65 553.25C1107.46 551.069 1107.87 548.706 1107.87 546.161C1107.87 543.616 1107.46 541.245 1106.65 539.047C1105.84 536.849 1104.59 535.073 1102.91 533.718C1101.22 532.362 1099.07 531.685 1096.46 531.685C1093.85 531.685 1091.7 532.362 1090.02 533.718C1088.33 535.073 1087.08 536.849 1086.27 539.047C1085.46 541.245 1085.06 543.616 1085.06 546.161C1085.06 548.706 1085.46 551.069 1086.27 553.25C1087.08 555.432 1088.33 557.192 1090.02 558.53C1091.7 559.869 1093.85 560.538 1096.46 560.538ZM1146.64 549.433V526.926H1152.49V565H1146.64V558.555H1146.24C1145.35 560.489 1143.96 562.133 1142.08 563.488C1140.19 564.826 1137.82 565.496 1134.94 565.496C1132.56 565.496 1130.44 564.975 1128.59 563.934C1126.74 562.876 1125.29 561.29 1124.23 559.175C1123.17 557.043 1122.64 554.358 1122.64 551.119V526.926H1128.49V550.722C1128.49 553.498 1129.27 555.713 1130.82 557.365C1132.39 559.018 1134.39 559.844 1136.82 559.844C1138.28 559.844 1139.76 559.472 1141.26 558.729C1142.78 557.985 1144.05 556.845 1145.08 555.308C1146.12 553.771 1146.64 551.813 1146.64 549.433ZM1169.05 542.096V565H1163.2V526.926H1168.86V532.875H1169.35C1170.24 530.941 1171.6 529.388 1173.42 528.215C1175.23 527.025 1177.58 526.43 1180.46 526.43C1183.03 526.43 1185.29 526.959 1187.22 528.016C1189.16 529.057 1190.66 530.644 1191.74 532.776C1192.81 534.891 1193.35 537.568 1193.35 540.807V565H1187.5V541.204C1187.5 538.212 1186.72 535.882 1185.17 534.213C1183.61 532.528 1181.48 531.685 1178.77 531.685C1176.9 531.685 1175.23 532.09 1173.76 532.9C1172.31 533.709 1171.16 534.891 1170.32 536.444C1169.48 537.998 1169.05 539.881 1169.05 542.096ZM1218.41 565.793C1215.24 565.793 1212.44 564.992 1210.01 563.389C1207.58 561.769 1205.68 559.489 1204.31 556.547C1202.94 553.589 1202.25 550.094 1202.25 546.062C1202.25 542.063 1202.94 538.593 1204.31 535.651C1205.68 532.709 1207.59 530.437 1210.04 528.834C1212.48 527.231 1215.31 526.43 1218.51 526.43C1220.99 526.43 1222.95 526.843 1224.39 527.669C1225.84 528.479 1226.95 529.404 1227.71 530.446C1228.49 531.47 1229.09 532.313 1229.52 532.974H1230.01V514.234H1235.86V565H1230.21V559.15H1229.52C1229.09 559.844 1228.48 560.72 1227.68 561.778C1226.89 562.819 1225.76 563.752 1224.29 564.579C1222.82 565.388 1220.86 565.793 1218.41 565.793ZM1219.21 560.538C1221.55 560.538 1223.54 559.927 1225.16 558.704C1226.78 557.464 1228.01 555.754 1228.85 553.573C1229.69 551.375 1230.11 548.838 1230.11 545.963C1230.11 543.12 1229.7 540.633 1228.87 538.502C1228.05 536.353 1226.82 534.684 1225.21 533.494C1223.59 532.288 1221.59 531.685 1219.21 531.685C1216.73 531.685 1214.66 532.321 1213.01 533.594C1211.37 534.85 1210.14 536.56 1209.32 538.725C1208.51 540.873 1208.1 543.286 1208.1 545.963C1208.1 548.673 1208.51 551.135 1209.34 553.35C1210.18 555.548 1211.42 557.299 1213.06 558.605C1214.71 559.894 1216.76 560.538 1219.21 560.538Z" fill="#B3B3B3"/>
</g>
<defs>
<clipPath id="clip0_760_40">
<rect width="1080" height="1920" fill="white" transform="translate(0 1080) rotate(-90)"/>
</clipPath>
</defs>
</svg>
