<svg width="151" height="151" viewBox="0 0 151 151" fill="none" xmlns="http://www.w3.org/2000/svg">
<g clip-path="url(#clip0_4555_1084)">
<path d="M75.4999 146.806C114.881 146.806 146.805 114.882 146.805 75.5009C146.805 36.1199 114.881 4.19531 75.4999 4.19531C36.1189 4.19531 4.19434 36.1199 4.19434 75.5009C4.19434 114.882 36.1189 146.806 75.4999 146.806Z" fill="#F68115" stroke="#FFEAC1" stroke-width="8.38889"/>
<path d="M51.3946 110.809C21.4305 95.2916 27.695 64.1621 49.5786 49.0078C22.6411 62.4782 15.909 101.206 49.5786 118.044C91.3327 136.903 121.822 106.495 127.04 89.4192L137.142 91.103L127.04 55.743L101.783 86.0516L111.881 87.7354C105.972 101.713 84.5691 122.045 51.3946 110.809Z" fill="black" fill-opacity="0.15"/>
<path d="M60.4912 78.168C60.4912 71.519 65.8813 66.1289 72.5303 66.1289C79.1795 66.1289 84.5696 71.519 84.5696 78.168V116.961H60.4912V78.168Z" fill="black" fill-opacity="0.15"/>
<path d="M82.9644 52.7522C82.9644 58.6625 78.1732 63.4538 72.263 63.4538C66.3527 63.4538 61.5615 58.6625 61.5615 52.7522C61.5615 46.842 66.3527 42.0508 72.263 42.0508C78.1732 42.0508 82.9644 46.842 82.9644 52.7522Z" fill="black" fill-opacity="0.15"/>
<path d="M45.5245 103.762C15.5604 88.2448 21.8249 57.1152 43.7085 41.9609C16.771 55.4313 10.0388 94.159 43.7085 110.997C85.4626 129.856 115.951 99.4478 121.17 82.3723L131.272 84.0561L121.17 48.6962L95.9124 79.0048L106.011 80.6885C100.102 94.6657 78.699 114.998 45.5245 103.762Z" fill="white"/>
<path d="M54.6211 71.1211C54.6211 64.4721 60.0112 59.082 66.6602 59.082C73.3093 59.082 78.6994 64.4721 78.6994 71.1211V109.914H54.6211V71.1211Z" fill="white"/>
<path d="M77.0942 45.7054C77.0942 51.6156 72.3031 56.4069 66.3929 56.4069C60.4825 56.4069 55.6914 51.6156 55.6914 45.7054C55.6914 39.7951 60.4825 35.0039 66.3929 35.0039C72.3031 35.0039 77.0942 39.7951 77.0942 45.7054Z" fill="white"/>
</g>
<defs>
<clipPath id="clip0_4555_1084">
<rect width="151" height="151" fill="white"/>
</clipPath>
</defs>
</svg>
