<svg width="308" height="57" viewBox="0 0 308 57" fill="none" xmlns="http://www.w3.org/2000/svg">
<g clip-path="url(#clip0_4500_859)">
<path d="M17.008 47.5134C-3.69738 36.791 0.631403 15.2803 15.7531 4.80859C-2.86085 14.1167 -7.51282 40.8778 15.7531 52.513C44.6055 65.5445 65.6735 44.5324 69.2792 32.7331L76.26 33.8966L69.2792 9.46268L51.8264 30.4061L58.8043 31.5696C54.7214 41.2279 39.9318 55.2779 17.008 47.5134Z" fill="url(#paint0_linear_4500_859)"/>
<path d="M23.2937 24.9558C23.2937 20.3613 27.0183 16.6367 31.6128 16.6367C36.2074 16.6367 39.932 20.3613 39.932 24.9558V51.7619H23.2937V24.9558Z" fill="url(#paint1_linear_4500_859)"/>
<path d="M38.8225 7.39478C38.8225 11.4788 35.5118 14.7896 31.4278 14.7896C27.3437 14.7896 24.033 11.4788 24.033 7.39478C24.033 3.31076 27.3437 0 31.4278 0C35.5118 0 38.8225 3.31076 38.8225 7.39478Z" fill="url(#paint2_linear_4500_859)"/>
<path d="M103.155 46.4914C101.718 46.4914 100.282 46.3771 98.8453 46.1486C97.4089 45.9527 96.054 45.6426 94.7808 45.2182C93.5076 44.7611 92.365 44.2061 91.3529 43.5532C90.7653 43.1615 90.3572 42.6881 90.1287 42.1331C89.9002 41.5781 89.8186 41.0394 89.8838 40.5171C89.9818 39.9621 90.194 39.4887 90.5205 39.097C90.8796 38.6726 91.3203 38.4114 91.8426 38.3134C92.365 38.2155 92.9363 38.3624 93.5566 38.7542C94.993 39.603 96.5111 40.2233 98.1108 40.615C99.7105 41.0068 101.392 41.2027 103.155 41.2027C105.734 41.2027 107.611 40.7783 108.786 39.9294C109.961 39.048 110.549 37.9217 110.549 36.5505C110.549 35.4079 110.125 34.5101 109.276 33.8572C108.46 33.2043 107.039 32.6656 105.015 32.2412L99.6288 31.1149C96.5274 30.462 94.2095 29.3683 92.6751 27.8339C91.1734 26.2669 90.4225 24.2101 90.4225 21.6637C90.4225 20.064 90.749 18.6113 91.4019 17.3054C92.0548 15.9995 92.9689 14.8732 94.1442 13.9265C95.3521 12.9797 96.7723 12.2615 98.4046 11.7718C100.069 11.2495 101.898 10.9883 103.889 10.9883C105.848 10.9883 107.709 11.2331 109.472 11.7228C111.235 12.2125 112.818 12.9308 114.222 13.8775C114.744 14.2366 115.087 14.6774 115.25 15.1997C115.446 15.722 115.495 16.2444 115.397 16.7667C115.299 17.2564 115.071 17.6808 114.711 18.0399C114.352 18.3991 113.895 18.6113 113.34 18.6766C112.818 18.7418 112.214 18.5786 111.528 18.1869C110.32 17.5013 109.096 17.0116 107.856 16.7178C106.615 16.4239 105.277 16.277 103.84 16.277C102.338 16.277 101.049 16.4892 99.9716 16.9136C98.8943 17.338 98.0618 17.942 97.4742 18.7255C96.9192 19.4764 96.6417 20.3742 96.6417 21.4189C96.6417 22.5941 97.0334 23.5409 97.817 24.2591C98.6005 24.9447 99.939 25.4834 101.832 25.8751L107.17 27.0014C110.402 27.687 112.802 28.7643 114.369 30.2334C115.968 31.7025 116.768 33.6613 116.768 36.1098C116.768 37.6768 116.442 39.097 115.789 40.3702C115.168 41.6434 114.254 42.737 113.046 43.6512C111.871 44.5653 110.451 45.2672 108.786 45.7569C107.121 46.2465 105.244 46.4914 103.155 46.4914ZM124.596 46.3935C123.617 46.3935 122.866 46.1323 122.344 45.6099C121.821 45.055 121.56 44.2714 121.56 43.2594V14.1713C121.56 13.1593 121.821 12.3921 122.344 11.8698C122.866 11.3474 123.617 11.0862 124.596 11.0862C125.576 11.0862 126.327 11.3474 126.849 11.8698C127.404 12.3921 127.682 13.1593 127.682 14.1713V26.8545H126.996C127.714 25.1242 128.824 23.8184 130.326 22.9369C131.86 22.0228 133.591 21.5658 135.517 21.5658C137.443 21.5658 139.026 21.9249 140.267 22.6431C141.507 23.3613 142.438 24.455 143.058 25.9241C143.678 27.3605 143.988 29.1887 143.988 31.4087V43.2594C143.988 44.2714 143.727 45.055 143.205 45.6099C142.683 46.1323 141.932 46.3935 140.952 46.3935C139.973 46.3935 139.206 46.1323 138.651 45.6099C138.128 45.055 137.867 44.2714 137.867 43.2594V31.7025C137.867 29.8417 137.508 28.4868 136.79 27.638C136.104 26.7892 135.027 26.3648 133.558 26.3648C131.762 26.3648 130.326 26.9361 129.249 28.0788C128.204 29.1887 127.682 30.6742 127.682 32.535V43.2594C127.682 45.3488 126.653 46.3935 124.596 46.3935ZM158.09 46.4914C156.36 46.4914 154.809 46.1649 153.438 45.512C152.099 44.8264 151.038 43.9123 150.255 42.7697C149.504 41.6271 149.128 40.3375 149.128 38.9011C149.128 37.1382 149.585 35.7507 150.5 34.7386C151.414 33.694 152.899 32.9431 154.956 32.486C157.013 32.029 159.771 31.8005 163.232 31.8005H165.68V35.3263H163.281C161.257 35.3263 159.641 35.4242 158.433 35.6201C157.225 35.816 156.36 36.1588 155.837 36.6485C155.348 37.1055 155.103 37.7585 155.103 38.6073C155.103 39.6846 155.478 40.5661 156.229 41.2516C156.98 41.9372 158.025 42.28 159.363 42.28C160.44 42.28 161.387 42.0351 162.203 41.5454C163.052 41.0231 163.721 40.3212 164.211 39.4397C164.701 38.5583 164.946 37.5462 164.946 36.4036V30.7721C164.946 29.1398 164.587 27.9645 163.868 27.2463C163.15 26.528 161.942 26.1689 160.245 26.1689C159.298 26.1689 158.269 26.2832 157.159 26.5117C156.082 26.7402 154.939 27.132 153.732 27.687C153.111 27.9808 152.556 28.0624 152.067 27.9318C151.61 27.8013 151.25 27.5401 150.989 27.1483C150.728 26.7239 150.597 26.2669 150.597 25.7772C150.597 25.2875 150.728 24.8141 150.989 24.3571C151.25 23.8674 151.691 23.5082 152.311 23.2797C153.813 22.6594 155.25 22.2187 156.621 21.9575C158.025 21.6964 159.298 21.5658 160.44 21.5658C162.791 21.5658 164.717 21.9249 166.219 22.6431C167.753 23.3613 168.896 24.455 169.647 25.9241C170.398 27.3605 170.773 29.2214 170.773 31.5066V43.2594C170.773 44.2714 170.528 45.055 170.038 45.6099C169.549 46.1323 168.847 46.3935 167.933 46.3935C167.019 46.3935 166.3 46.1323 165.778 45.6099C165.288 45.055 165.044 44.2714 165.044 43.2594V40.9088H165.435C165.207 42.0515 164.75 43.0472 164.064 43.896C163.411 44.7122 162.579 45.3488 161.567 45.8058C160.555 46.2629 159.396 46.4914 158.09 46.4914ZM180.12 46.3935C179.108 46.3935 178.325 46.1323 177.77 45.6099C177.247 45.055 176.986 44.2714 176.986 43.2594V24.7488C176.986 23.7368 177.247 22.9696 177.77 22.4472C178.292 21.9249 179.026 21.6637 179.973 21.6637C180.92 21.6637 181.655 21.9249 182.177 22.4472C182.699 22.9696 182.96 23.7368 182.96 24.7488V27.8339H182.471C182.928 25.8751 183.826 24.3897 185.164 23.3777C186.503 22.3656 188.282 21.7617 190.502 21.5658C191.187 21.5005 191.726 21.68 192.118 22.1044C192.542 22.4962 192.787 23.1165 192.852 23.9653C192.918 24.7815 192.722 25.4507 192.265 25.9731C191.84 26.4628 191.187 26.7566 190.306 26.8545L189.229 26.9525C187.237 27.1483 185.735 27.7686 184.723 28.8133C183.711 29.8253 183.205 31.2618 183.205 33.1226V43.2594C183.205 44.2714 182.944 45.055 182.422 45.6099C181.899 46.1323 181.132 46.3935 180.12 46.3935ZM207.582 46.4914C204.872 46.4914 202.538 45.9854 200.579 44.9733C198.62 43.9613 197.102 42.5248 196.025 40.664C194.98 38.8031 194.458 36.5995 194.458 34.0531C194.458 31.5719 194.964 29.4009 195.976 27.5401C197.021 25.6792 198.441 24.2265 200.236 23.1818C202.065 22.1044 204.138 21.5658 206.456 21.5658C208.153 21.5658 209.671 21.8433 211.01 22.3983C212.381 22.9533 213.54 23.7531 214.487 24.7978C215.466 25.8425 216.201 27.1157 216.69 28.6174C217.213 30.0865 217.474 31.7515 217.474 33.6123C217.474 34.2 217.262 34.657 216.837 34.9835C216.445 35.2773 215.874 35.4242 215.123 35.4242H199.404V31.8984H213.164L212.381 32.6329C212.381 31.1312 212.152 29.8743 211.695 28.8623C211.271 27.8502 210.634 27.083 209.786 26.5607C208.969 26.0057 207.941 25.7282 206.7 25.7282C205.329 25.7282 204.154 26.0547 203.175 26.7076C202.228 27.3279 201.493 28.2257 200.971 29.4009C200.481 30.5436 200.236 31.9147 200.236 33.5144V33.8572C200.236 36.5342 200.857 38.542 202.097 39.8805C203.37 41.1863 205.231 41.8393 207.68 41.8393C208.529 41.8393 209.475 41.7413 210.52 41.5454C211.597 41.3169 212.609 40.9415 213.556 40.4191C214.242 40.0274 214.846 39.8642 215.368 39.9294C215.89 39.9621 216.298 40.1416 216.592 40.4681C216.919 40.7946 217.115 41.2027 217.18 41.6924C217.245 42.1494 217.147 42.6228 216.886 43.1125C216.658 43.6022 216.25 44.0266 215.662 44.3857C214.519 45.1039 213.197 45.6426 211.695 46.0017C210.226 46.3282 208.855 46.4914 207.582 46.4914ZM226.043 46.3935C225.031 46.3935 224.248 46.116 223.693 45.561C223.17 44.9733 222.909 44.1735 222.909 43.1615V14.3182C222.909 13.2736 223.17 12.4737 223.693 11.9187C224.248 11.3637 225.031 11.0862 226.043 11.0862C227.055 11.0862 227.822 11.3637 228.345 11.9187C228.9 12.4737 229.177 13.2736 229.177 14.3182V43.1615C229.177 44.1735 228.916 44.9733 228.394 45.561C227.871 46.116 227.088 46.3935 226.043 46.3935ZM239.178 46.3935C238.199 46.3935 237.448 46.1323 236.925 45.6099C236.403 45.055 236.142 44.2714 236.142 43.2594V24.7488C236.142 23.7368 236.403 22.9696 236.925 22.4472C237.448 21.9249 238.182 21.6637 239.129 21.6637C240.076 21.6637 240.81 21.9249 241.333 22.4472C241.855 22.9696 242.116 23.7368 242.116 24.7488V28.0788L241.578 26.8545C242.296 25.1242 243.406 23.8184 244.908 22.9369C246.442 22.0228 248.172 21.5658 250.098 21.5658C252.024 21.5658 253.608 21.9249 254.848 22.6431C256.089 23.3613 257.019 24.455 257.64 25.9241C258.26 27.3605 258.57 29.1887 258.57 31.4087V43.2594C258.57 44.2714 258.309 45.055 257.787 45.6099C257.264 46.1323 256.513 46.3935 255.534 46.3935C254.555 46.3935 253.787 46.1323 253.232 45.6099C252.71 45.055 252.449 44.2714 252.449 43.2594V31.7025C252.449 29.8417 252.09 28.4868 251.372 27.638C250.686 26.7892 249.609 26.3648 248.14 26.3648C246.344 26.3648 244.908 26.9361 243.83 28.0788C242.786 29.1887 242.263 30.6742 242.263 32.535V43.2594C242.263 45.3488 241.235 46.3935 239.178 46.3935ZM269.488 46.3935C268.509 46.3935 267.742 46.1323 267.187 45.6099C266.665 45.055 266.403 44.2714 266.403 43.2594V26.6586H264.151C263.367 26.6586 262.763 26.4628 262.339 26.071C261.914 25.6466 261.702 25.0753 261.702 24.3571C261.702 23.6062 261.914 23.0349 262.339 22.6431C262.763 22.2514 263.367 22.0555 264.151 22.0555H268.166L266.403 23.6715V22.0065C266.403 18.6439 267.252 16.1301 268.95 14.4652C270.647 12.7675 273.096 11.7718 276.295 11.478L277.96 11.3311C278.613 11.2658 279.136 11.3801 279.527 11.6739C279.919 11.935 280.18 12.2942 280.311 12.7512C280.441 13.1756 280.458 13.6163 280.36 14.0734C280.262 14.5304 280.05 14.9385 279.723 15.2976C279.429 15.6241 279.038 15.8037 278.548 15.8363L277.862 15.8853C276.001 16.0159 274.647 16.4892 273.798 17.3054C272.949 18.1216 272.525 19.3621 272.525 21.0271V22.839L271.741 22.0555H276.687C277.471 22.0555 278.075 22.2514 278.499 22.6431C278.923 23.0349 279.136 23.6062 279.136 24.3571C279.136 25.0753 278.923 25.6466 278.499 26.071C278.075 26.4628 277.471 26.6586 276.687 26.6586H272.525V43.2594C272.525 45.3488 271.513 46.3935 269.488 46.3935ZM292.924 46.4914C290.442 46.4914 288.288 45.9854 286.46 44.9733C284.631 43.9613 283.211 42.5248 282.199 40.664C281.187 38.7705 280.681 36.5505 280.681 34.0041C280.681 32.078 280.959 30.364 281.514 28.8623C282.101 27.3279 282.934 26.022 284.011 24.9447C285.088 23.8347 286.378 23.0022 287.88 22.4472C289.381 21.8596 291.063 21.5658 292.924 21.5658C295.405 21.5658 297.559 22.0718 299.388 23.0838C301.216 24.0959 302.636 25.5323 303.648 27.3932C304.66 29.254 305.166 31.4577 305.166 34.0041C305.166 35.9302 304.872 37.6605 304.285 39.1949C303.73 40.7293 302.913 42.0515 301.836 43.1615C300.759 44.2388 299.469 45.0713 297.967 45.6589C296.466 46.2139 294.784 46.4914 292.924 46.4914ZM292.924 41.8393C294.132 41.8393 295.193 41.5454 296.107 40.9578C297.021 40.3702 297.723 39.505 298.212 38.3624C298.735 37.1871 298.996 35.7344 298.996 34.0041C298.996 31.3924 298.441 29.4499 297.331 28.1767C296.221 26.8708 294.752 26.2179 292.924 26.2179C291.716 26.2179 290.655 26.5117 289.741 27.0994C288.826 27.6544 288.108 28.5195 287.586 29.6948C287.096 30.8374 286.851 32.2738 286.851 34.0041C286.851 36.5832 287.406 38.542 288.516 39.8805C289.626 41.1863 291.095 41.8393 292.924 41.8393Z" fill="#121212"/>
</g>
<defs>
<linearGradient id="paint0_linear_4500_859" x1="7.93159e-06" y1="37.3923" x2="70.672" y2="18.4917" gradientUnits="userSpaceOnUse">
<stop stop-color="#F68416"/>
<stop offset="1" stop-color="#EE5602"/>
</linearGradient>
<linearGradient id="paint1_linear_4500_859" x1="0.000101204" y1="37.3888" x2="70.6721" y2="18.4882" gradientUnits="userSpaceOnUse">
<stop stop-color="#F68416"/>
<stop offset="1" stop-color="#EE5602"/>
</linearGradient>
<linearGradient id="paint2_linear_4500_859" x1="6.09601e-05" y1="37.3904" x2="70.6721" y2="18.4898" gradientUnits="userSpaceOnUse">
<stop stop-color="#F68416"/>
<stop offset="1" stop-color="#EE5602"/>
</linearGradient>
<clipPath id="clip0_4500_859">
<rect width="308" height="57" fill="white"/>
</clipPath>
</defs>
</svg>
