<svg width="308" height="57" viewBox="0 0 308 57" fill="none" xmlns="http://www.w3.org/2000/svg">
<path d="M17.008 47.5115C-3.69739 36.7891 0.631395 15.2784 15.7531 4.80667C-2.86086 14.1148 -7.51283 40.8759 15.7531 52.5111C44.6055 65.5426 65.6735 44.5305 69.2792 32.7312L76.26 33.8947L69.2792 9.46076L51.8264 30.4042L58.8043 31.5677C54.7214 41.226 39.9318 55.276 17.008 47.5115Z" fill="url(#paint0_linear_145_302)"/>
<path d="M23.2936 24.9574C23.2936 20.3629 27.0182 16.6383 31.6127 16.6383C36.2073 16.6383 39.9319 20.3629 39.9319 24.9574V51.7635H23.2936V24.9574Z" fill="url(#paint1_linear_145_302)"/>
<path d="M38.8224 7.39478C38.8224 11.4788 35.5117 14.7896 31.4277 14.7896C27.3436 14.7896 24.0329 11.4788 24.0329 7.39478C24.0329 3.31076 27.3436 0 31.4277 0C35.5117 0 38.8224 3.31076 38.8224 7.39478Z" fill="url(#paint2_linear_145_302)"/>
<path d="M103.155 46.4897C101.718 46.4897 100.282 46.3754 98.8452 46.1469C97.4088 45.951 96.0539 45.6409 94.7807 45.2165C93.5075 44.7594 92.3649 44.2044 91.3528 43.5515C90.7652 43.1598 90.3571 42.6864 90.1286 42.1314C89.9001 41.5764 89.8185 41.0377 89.8837 40.5154C89.9817 39.9604 90.1939 39.487 90.5204 39.0953C90.8795 38.6709 91.3202 38.4097 91.8425 38.3117C92.3649 38.2138 92.9362 38.3607 93.5565 38.7525C94.9929 39.6013 96.511 40.2216 98.1107 40.6133C99.7104 41.0051 101.392 41.201 103.155 41.201C105.734 41.201 107.611 40.7766 108.786 39.9277C109.961 39.0463 110.549 37.92 110.549 36.5488C110.549 35.4062 110.125 34.5084 109.276 33.8555C108.46 33.2026 107.039 32.6639 105.015 32.2395L99.6287 31.1132C96.5273 30.4603 94.2094 29.3666 92.675 27.8322C91.1733 26.2652 90.4224 24.2084 90.4224 21.662C90.4224 20.0623 90.7489 18.6096 91.4018 17.3037C92.0547 15.9978 92.9688 14.8715 94.1441 13.9248C95.352 12.978 96.7722 12.2598 98.4045 11.7701C100.069 11.2478 101.898 10.9866 103.889 10.9866C105.848 10.9866 107.709 11.2314 109.472 11.7211C111.235 12.2108 112.818 12.9291 114.222 13.8758C114.744 14.2349 115.087 14.6757 115.25 15.198C115.446 15.7203 115.495 16.2427 115.397 16.765C115.299 17.2547 115.071 17.6791 114.711 18.0382C114.352 18.3974 113.895 18.6096 113.34 18.6749C112.818 18.7401 112.214 18.5769 111.528 18.1852C110.32 17.4996 109.096 17.0099 107.856 16.7161C106.615 16.4222 105.277 16.2753 103.84 16.2753C102.338 16.2753 101.049 16.4875 99.9715 16.9119C98.8942 17.3363 98.0617 17.9403 97.4741 18.7238C96.9191 19.4747 96.6416 20.3725 96.6416 21.4172C96.6416 22.5924 97.0333 23.5392 97.8169 24.2574C98.6004 24.943 99.9389 25.4817 101.832 25.8734L107.17 26.9997C110.402 27.6853 112.802 28.7626 114.369 30.2317C115.968 31.7008 116.768 33.6596 116.768 36.1081C116.768 37.6751 116.442 39.0953 115.789 40.3685C115.168 41.6417 114.254 42.7353 113.046 43.6495C111.871 44.5636 110.451 45.2655 108.786 45.7552C107.121 46.2448 105.244 46.4897 103.155 46.4897ZM124.596 46.3918C123.617 46.3918 122.866 46.1306 122.344 45.6082C121.821 45.0533 121.56 44.2697 121.56 43.2577V14.1696C121.56 13.1576 121.821 12.3904 122.344 11.8681C122.866 11.3457 123.617 11.0845 124.596 11.0845C125.576 11.0845 126.327 11.3457 126.849 11.8681C127.404 12.3904 127.682 13.1576 127.682 14.1696V26.8528H126.996C127.714 25.1225 128.824 23.8167 130.326 22.9352C131.86 22.0211 133.591 21.5641 135.517 21.5641C137.443 21.5641 139.026 21.9232 140.267 22.6414C141.507 23.3596 142.438 24.4533 143.058 25.9224C143.678 27.3588 143.988 29.187 143.988 31.407V43.2577C143.988 44.2697 143.727 45.0533 143.205 45.6082C142.683 46.1306 141.932 46.3918 140.952 46.3918C139.973 46.3918 139.206 46.1306 138.651 45.6082C138.128 45.0533 137.867 44.2697 137.867 43.2577V31.7008C137.867 29.84 137.508 28.4851 136.79 27.6363C136.104 26.7875 135.027 26.3631 133.558 26.3631C131.762 26.3631 130.326 26.9344 129.249 28.0771C128.204 29.187 127.682 30.6725 127.682 32.5333V43.2577C127.682 45.3471 126.653 46.3918 124.596 46.3918ZM158.09 46.4897C156.36 46.4897 154.809 46.1632 153.438 45.5103C152.099 44.8247 151.038 43.9106 150.255 42.768C149.504 41.6254 149.128 40.3358 149.128 38.8994C149.128 37.1365 149.585 35.749 150.5 34.7369C151.414 33.6923 152.899 32.9414 154.956 32.4843C157.013 32.0273 159.771 31.7988 163.232 31.7988H165.68V35.3246H163.281C161.257 35.3246 159.641 35.4225 158.433 35.6184C157.225 35.8143 156.36 36.1571 155.837 36.6468C155.348 37.1038 155.103 37.7568 155.103 38.6056C155.103 39.6829 155.478 40.5644 156.229 41.2499C156.98 41.9355 158.025 42.2783 159.363 42.2783C160.44 42.2783 161.387 42.0334 162.203 41.5437C163.052 41.0214 163.721 40.3195 164.211 39.438C164.701 38.5566 164.946 37.5445 164.946 36.4019V30.7704C164.946 29.1381 164.587 27.9628 163.868 27.2446C163.15 26.5263 161.942 26.1672 160.245 26.1672C159.298 26.1672 158.269 26.2815 157.159 26.51C156.082 26.7385 154.939 27.1303 153.732 27.6853C153.111 27.9791 152.556 28.0607 152.067 27.9301C151.61 27.7996 151.25 27.5384 150.989 27.1466C150.728 26.7222 150.597 26.2652 150.597 25.7755C150.597 25.2858 150.728 24.8124 150.989 24.3554C151.25 23.8657 151.691 23.5065 152.311 23.278C153.813 22.6577 155.25 22.217 156.621 21.9558C158.025 21.6947 159.298 21.5641 160.44 21.5641C162.791 21.5641 164.717 21.9232 166.219 22.6414C167.753 23.3596 168.896 24.4533 169.647 25.9224C170.398 27.3588 170.773 29.2197 170.773 31.5049V43.2577C170.773 44.2697 170.528 45.0533 170.038 45.6082C169.549 46.1306 168.847 46.3918 167.933 46.3918C167.019 46.3918 166.3 46.1306 165.778 45.6082C165.288 45.0533 165.044 44.2697 165.044 43.2577V40.9071H165.435C165.207 42.0498 164.75 43.0455 164.064 43.8943C163.411 44.7105 162.579 45.3471 161.567 45.8041C160.555 46.2612 159.396 46.4897 158.09 46.4897ZM180.12 46.3918C179.108 46.3918 178.325 46.1306 177.77 45.6082C177.247 45.0533 176.986 44.2697 176.986 43.2577V24.7471C176.986 23.7351 177.247 22.9679 177.77 22.4455C178.292 21.9232 179.026 21.662 179.973 21.662C180.92 21.662 181.655 21.9232 182.177 22.4455C182.699 22.9679 182.96 23.7351 182.96 24.7471V27.8322H182.471C182.928 25.8734 183.826 24.388 185.164 23.376C186.503 22.3639 188.282 21.76 190.502 21.5641C191.187 21.4988 191.726 21.6783 192.118 22.1027C192.542 22.4945 192.787 23.1148 192.852 23.9636C192.918 24.7798 192.722 25.449 192.265 25.9714C191.84 26.4611 191.187 26.7549 190.306 26.8528L189.229 26.9508C187.237 27.1466 185.735 27.7669 184.723 28.8116C183.711 29.8236 183.205 31.2601 183.205 33.1209V43.2577C183.205 44.2697 182.944 45.0533 182.422 45.6082C181.899 46.1306 181.132 46.3918 180.12 46.3918ZM207.582 46.4897C204.872 46.4897 202.538 45.9837 200.579 44.9716C198.62 43.9596 197.102 42.5231 196.025 40.6623C194.98 38.8014 194.458 36.5978 194.458 34.0514C194.458 31.5702 194.964 29.3992 195.976 27.5384C197.021 25.6775 198.441 24.2248 200.236 23.1801C202.065 22.1027 204.138 21.5641 206.456 21.5641C208.153 21.5641 209.671 21.8416 211.01 22.3966C212.381 22.9516 213.54 23.7514 214.487 24.7961C215.466 25.8408 216.201 27.114 216.69 28.6157C217.213 30.0848 217.474 31.7498 217.474 33.6106C217.474 34.1983 217.262 34.6553 216.837 34.9818C216.445 35.2756 215.874 35.4225 215.123 35.4225H199.404V31.8967H213.164L212.381 32.6312C212.381 31.1295 212.152 29.8726 211.695 28.8606C211.271 27.8485 210.634 27.0813 209.786 26.559C208.969 26.004 207.941 25.7265 206.7 25.7265C205.329 25.7265 204.154 26.053 203.175 26.7059C202.228 27.3262 201.493 28.224 200.971 29.3992C200.481 30.5419 200.236 31.913 200.236 33.5127V33.8555C200.236 36.5325 200.857 38.5403 202.097 39.8788C203.37 41.1846 205.231 41.8376 207.68 41.8376C208.529 41.8376 209.475 41.7396 210.52 41.5437C211.597 41.3152 212.609 40.9398 213.556 40.4174C214.242 40.0257 214.846 39.8625 215.368 39.9277C215.89 39.9604 216.298 40.1399 216.592 40.4664C216.919 40.7929 217.115 41.201 217.18 41.6907C217.245 42.1477 217.147 42.6211 216.886 43.1108C216.658 43.6005 216.25 44.0249 215.662 44.384C214.519 45.1022 213.197 45.6409 211.695 46C210.226 46.3265 208.855 46.4897 207.582 46.4897ZM226.043 46.3918C225.031 46.3918 224.248 46.1143 223.693 45.5593C223.17 44.9716 222.909 44.1718 222.909 43.1598V14.3165C222.909 13.2719 223.17 12.472 223.693 11.917C224.248 11.362 225.031 11.0845 226.043 11.0845C227.055 11.0845 227.822 11.362 228.345 11.917C228.9 12.472 229.177 13.2719 229.177 14.3165V43.1598C229.177 44.1718 228.916 44.9716 228.394 45.5593C227.871 46.1143 227.088 46.3918 226.043 46.3918ZM239.178 46.3918C238.199 46.3918 237.448 46.1306 236.925 45.6082C236.403 45.0533 236.142 44.2697 236.142 43.2577V24.7471C236.142 23.7351 236.403 22.9679 236.925 22.4455C237.448 21.9232 238.182 21.662 239.129 21.662C240.076 21.662 240.81 21.9232 241.333 22.4455C241.855 22.9679 242.116 23.7351 242.116 24.7471V28.0771L241.578 26.8528C242.296 25.1225 243.406 23.8167 244.908 22.9352C246.442 22.0211 248.172 21.5641 250.098 21.5641C252.024 21.5641 253.608 21.9232 254.848 22.6414C256.089 23.3596 257.019 24.4533 257.64 25.9224C258.26 27.3588 258.57 29.187 258.57 31.407V43.2577C258.57 44.2697 258.309 45.0533 257.787 45.6082C257.264 46.1306 256.513 46.3918 255.534 46.3918C254.555 46.3918 253.787 46.1306 253.232 45.6082C252.71 45.0533 252.449 44.2697 252.449 43.2577V31.7008C252.449 29.84 252.09 28.4851 251.372 27.6363C250.686 26.7875 249.609 26.3631 248.14 26.3631C246.344 26.3631 244.908 26.9344 243.83 28.0771C242.786 29.187 242.263 30.6725 242.263 32.5333V43.2577C242.263 45.3471 241.235 46.3918 239.178 46.3918ZM269.488 46.3918C268.509 46.3918 267.742 46.1306 267.187 45.6082C266.665 45.0533 266.403 44.2697 266.403 43.2577V26.6569H264.151C263.367 26.6569 262.763 26.4611 262.339 26.0693C261.914 25.6449 261.702 25.0736 261.702 24.3554C261.702 23.6045 261.914 23.0332 262.339 22.6414C262.763 22.2497 263.367 22.0538 264.151 22.0538H268.166L266.403 23.6698V22.0048C266.403 18.6422 267.252 16.1284 268.95 14.4635C270.647 12.7658 273.096 11.7701 276.295 11.4763L277.96 11.3294C278.613 11.2641 279.136 11.3784 279.527 11.6722C279.919 11.9333 280.18 12.2925 280.311 12.7495C280.441 13.1739 280.458 13.6146 280.36 14.0717C280.262 14.5287 280.05 14.9368 279.723 15.2959C279.429 15.6224 279.038 15.802 278.548 15.8346L277.862 15.8836C276.001 16.0142 274.647 16.4875 273.798 17.3037C272.949 18.1199 272.525 19.3604 272.525 21.0254V22.8373L271.741 22.0538H276.687C277.471 22.0538 278.075 22.2497 278.499 22.6414C278.923 23.0332 279.136 23.6045 279.136 24.3554C279.136 25.0736 278.923 25.6449 278.499 26.0693C278.075 26.4611 277.471 26.6569 276.687 26.6569H272.525V43.2577C272.525 45.3471 271.513 46.3918 269.488 46.3918ZM292.924 46.4897C290.442 46.4897 288.288 45.9837 286.46 44.9716C284.631 43.9596 283.211 42.5231 282.199 40.6623C281.187 38.7688 280.681 36.5488 280.681 34.0024C280.681 32.0763 280.959 30.3623 281.514 28.8606C282.101 27.3262 282.934 26.0203 284.011 24.943C285.088 23.833 286.378 23.0005 287.88 22.4455C289.381 21.8579 291.063 21.5641 292.924 21.5641C295.405 21.5641 297.559 22.0701 299.388 23.0821C301.216 24.0942 302.636 25.5306 303.648 27.3915C304.66 29.2523 305.166 31.456 305.166 34.0024C305.166 35.9285 304.872 37.6588 304.285 39.1932C303.73 40.7276 302.913 42.0498 301.836 43.1598C300.759 44.2371 299.469 45.0696 297.967 45.6572C296.466 46.2122 294.784 46.4897 292.924 46.4897ZM292.924 41.8376C294.132 41.8376 295.193 41.5437 296.107 40.9561C297.021 40.3685 297.723 39.5033 298.212 38.3607C298.735 37.1854 298.996 35.7327 298.996 34.0024C298.996 31.3907 298.441 29.4482 297.331 28.175C296.221 26.8691 294.752 26.2162 292.924 26.2162C291.716 26.2162 290.655 26.51 289.741 27.0977C288.826 27.6527 288.108 28.5178 287.586 29.6931C287.096 30.8357 286.851 32.2721 286.851 34.0024C286.851 36.5815 287.406 38.5403 288.516 39.8788C289.626 41.1846 291.095 41.8376 292.924 41.8376Z" fill="#DFDFD6"/>
<defs>
<linearGradient id="paint0_linear_145_302" x1="4.06649e-07" y1="37.3904" x2="70.672" y2="18.4898" gradientUnits="userSpaceOnUse">
<stop stop-color="#F68416"/>
<stop offset="1" stop-color="#EE5602"/>
</linearGradient>
<linearGradient id="paint1_linear_145_302" x1="4.06649e-07" y1="37.3904" x2="70.672" y2="18.4898" gradientUnits="userSpaceOnUse">
<stop stop-color="#F68416"/>
<stop offset="1" stop-color="#EE5602"/>
</linearGradient>
<linearGradient id="paint2_linear_145_302" x1="4.06649e-07" y1="37.3904" x2="70.672" y2="18.4898" gradientUnits="userSpaceOnUse">
<stop stop-color="#F68416"/>
<stop offset="1" stop-color="#EE5602"/>
</linearGradient>
</defs>
</svg>
